PathFileType	4	(X/Y/Z)	Patient4_TMGait_0pt5_02_left_22.trc.trc
DataRate	CameraRate	NumFrames	NumMarkers	Units	OrigDataRate	OrigDataStartFrame	OrigNumFrames
72.916666666667	72.916666666667	4	33	mm	72.916666666667	124	       141
Frame#	Time	Sacral			L.Shoulder			Chest			R.Shoulder			Neck			R.ASIS			L.ASIS			R.Thigh.Superior			R.Thigh.Lateral			R.Thigh.Inferior			R.Patella			L.Thigh.Superior			L.Thigh.Lateral			L.Thigh.Inferior			L.Patella			L.Shank.Superior			L.Shank.Lateral			L.Shank.Inferior			R.Shank.Superior			R.Shank.Lateral			R.Shank.Inferior			R.Heel			R.Midfoot.Superior			R.Midfoot.Lateral			R.Toe			L.Heel			L.Midfoot.Lateral			L.Midfoot.Superior			L.Toe			L.Elbow			L.Wrist			R.Elbow			R.Wrist			
		X1	Y1	Z1	X2	Y2	Z2	X3	Y3	Z3	X4	Y4	Z4	X5	Y5	Z5	X6	Y6	Z6	X7	Y7	Z7	X8	Y8	Z8	X9	Y9	Z9	X10	Y10	Z10	X11	Y11	Z11	X12	Y12	Z12	X13	Y13	Z13	X14	Y14	Z14	X15	Y15	Z15	X16	Y16	Z16	X17	Y17	Z17	X18	Y18	Z18	X19	Y19	Z19	X20	Y20	Z20	X21	Y21	Z21	X22	Y22	Z22	X23	Y23	Z23	X24	Y24	Z24	X25	Y25	Z25	X26	Y26	Z26	X27	Y27	Z27	X28	Y28	Z28	X29	Y29	Z29	X30	Y30	Z30	X31	Y31	Z31	X32	Y32	Z32	X33	Y33	Z33	

124	29.586857142857	462.976291740106	1001.779740968585	513.862367718462	620.680351817030	1432.320241791127	327.682155528067	740.958379853567	1356.904464801783	473.087385843337	678.663002560288	1428.668330771635	657.277408720315	638.448512329917	1486.881441318866	480.477232770851	694.897089740726	932.821815014737	613.503233329221	663.440987511281	951.857962803615	340.302762924222	691.825825705783	720.029426409887	587.563391584891	587.807492775398	627.318207830135	650.802168352309	646.290550589554	560.715266841703	570.180506817207	626.081804145561	474.337029573387	572.962026934187	739.025994106583	764.414448784145	370.599467714596	681.077826064577	635.185978713170	301.308617530304	783.730676851802	576.461305209615	362.333712391903	805.859489503991	509.422943832452	363.120270349379	790.792302734016	436.928521335717	353.197731643196	723.979188556287	306.853600285130	305.156552133462	809.545837880828	208.639380477009	362.837657746732	585.907198097156	391.837805154781	580.506541046129	501.869559973435	299.451805575351	643.222196735226	526.870548466730	199.924855296110	578.891552156409	373.145864852795	43.840053348786	549.105100187112	544.347557010035	95.413850133237	586.667311266410	455.341599720758	35.848920334518	624.040367324196	663.659780454436	39.685886188202	617.245650853160	719.637360648059	37.430458341801	403.913732007528	792.911168619536	38.315908909813	323.101492485602	869.431259622006	108.046337873922	344.625129468232	1000.308207084535	68.326707293893	317.188816960521	477.085463304875	1110.110246513989	224.714202428363	492.767703970666	846.577153681568	232.986260257900	815.842085922342	1118.390611305320	758.206471207108	1029.433003890925	1194.361458352950	650.975573046575	
125	29.600571428571	464.061315318313	1000.545200594153	511.213627530660	620.586568268998	1430.714172876136	324.342123441737	740.947715729397	1356.228233124886	470.181314394892	677.967702301413	1428.271573718073	654.020324293189	637.949597549845	1485.890640683398	476.935574447741	695.864649758450	931.839471123399	611.897007536056	665.404142601488	950.459810264298	338.622504595830	692.120992755649	718.659907494017	586.514534115502	587.188575682432	626.425452643987	649.310107233613	645.623214570544	559.353615862626	569.006889685006	624.799218201629	472.426115123457	571.714366177506	740.646785295275	762.630817597897	369.387950653325	681.569605376111	633.707873139183	300.773126217739	784.151366401321	574.854657240657	361.779722433861	804.862064765019	507.016586322960	363.175193068748	789.532680299695	434.319233859048	353.173693563422	721.408969760286	304.925232537368	305.143699033308	805.357019740840	205.851248120516	363.546798530629	583.355975068003	390.498531657804	579.367284297287	498.028298877090	299.368611437270	642.389806498957	521.552116673906	199.359127921512	578.344129284081	366.232608719604	44.296744000279	549.200967167896	537.615271450456	95.454714566266	586.709142285635	448.484856214856	36.040742433532	624.090194852969	656.857720773382	39.427984675780	617.366789699050	711.939306030124	37.120446223999	404.451886950437	785.495333180242	36.710219012043	323.722143433624	863.810213581261	104.269025558427	346.110274381404	994.044444690674	61.214896782784	318.828277147210	478.965713992057	1107.570065208608	221.211561210672	498.063147635759	844.207440243036	229.509478087270	816.727489171968	1118.523982250151	755.101671379762	1029.650786382228	1194.071583875469	645.914121035683	
126	29.614285714286	465.078788828495	999.523692968495	508.548237645697	620.655602020791	1429.226246515978	320.858724043741	741.067827287884	1355.666511745835	467.165553261640	677.445392548456	1428.151601383837	650.609789237251	637.693333244431	1485.103236457315	473.180467281041	696.722470784868	930.993752747263	610.168767785901	667.253853851546	949.376816624939	336.839054794861	692.682076662285	717.467777613692	585.242288190265	587.118508981656	625.508399457437	647.591547140866	645.668728223934	558.054660889853	567.584126054870	624.405082266400	470.385000574920	570.357162250502	742.251509749294	761.309700576880	368.299081820466	682.445201831093	632.853250158414	300.003265465845	784.692423854947	573.740571893495	361.296047297975	804.010498438702	505.117546408373	363.162753329088	788.406921385275	432.219090807565	353.010911415757	719.109711161638	303.539612109066	304.716644595452	801.243813256267	203.591603057563	364.038804345532	581.461686340459	389.101071131985	578.082644108373	494.676082357618	299.436687744885	641.420070908464	516.560626564329	198.903060188114	577.741001108393	359.367801895772	45.158179592854	549.316072337933	531.050816659519	95.559441075514	586.741276181488	441.683829588979	36.441325868663	624.136510385092	650.112304215785	39.113674358006	617.497456152065	704.469921500283	36.943221508959	404.695731327659	778.289100236835	35.541217859064	324.054348523120	858.045795429793	101.297103100152	347.290508892204	987.757188515155	55.554747318568	320.174081946492	481.433704873991	1104.894964301791	217.533169217135	503.861665414565	841.755822952620	225.628679117034	816.973207412667	1118.575466745814	752.286554839047	1029.805019124617	1192.483969576840	641.368390147902	
127	29.628000000000	466.019580051400	998.776250951570	505.892548603508	620.861188024701	1427.933393362520	317.271124560606	741.295652986663	1355.272473324372	464.060387996059	677.117916951791	1428.371494670967	647.072782313784	637.669974712677	1484.580478453705	469.257516197093	697.432411372235	930.364332169392	608.314837571171	668.940055439873	948.685294782736	334.935081091984	693.489754040235	716.533276271009	583.714404576282	587.641963056650	624.618633603965	645.664656825688	646.493876749442	556.884457485949	565.934295857666	624.998344372975	468.260631016292	568.969468184229	743.831921553607	760.550020712217	367.282290834559	683.641191100609	632.625985792296	299.006897136870	785.299289997654	573.123539375932	360.817934671899	803.278726975444	503.750805969310	363.042098768606	787.365242996687	430.647267922125	352.715530733293	717.013946923486	302.713153453689	303.920594130473	797.167367894412	201.890209691370	364.324061792050	580.301946674037	387.704819980074	576.712483443519	491.870929540193	299.741481777394	640.341465121380	511.967219811208	198.642365624990	577.119601450814	352.597725445954	46.580454158882	549.443771041170	524.723662650888	95.755073868818	586.781449124686	434.965202439654	37.140359717196	624.173769825170	643.420675711101	38.749210682647	617.628033608696	697.290361730652	36.875896757972	404.712906642493	771.325649466746	34.785617833984	324.144214084414	852.140143695522	99.167701360676	348.138275405475	981.459337963267	51.456120849241	321.161244621700	484.503343014130	1102.165565358819	213.714017511838	510.134904607575	839.301496889587	221.372950839023	816.555891788807	1118.599830483205	749.738284973228	1029.859429691759	1189.588028312143	637.334995702130	
